<svg width="122" height="24" viewBox="0 0 122 25" fill="none" xmlns="http://www.w3.org/2000/svg">
<rect width="122" height="24" fill="#1E1E1E"/>
<path d="M16.4176 7.65625H12.6847C12.6165 7.1733 12.4773 6.74432 12.267 6.36932C12.0568 5.98864 11.7869 5.66477 11.4574 5.39773C11.1278 5.13068 10.7472 4.92614 10.3153 4.78409C9.8892 4.64205 9.42614 4.57102 8.92614 4.57102C8.02273 4.57102 7.2358 4.79545 6.56534 5.24432C5.89489 5.6875 5.375 6.33523 5.00568 7.1875C4.63636 8.03409 4.4517 9.0625 4.4517 10.2727C4.4517 11.517 4.63636 12.5625 5.00568 13.4091C5.38068 14.2557 5.90341 14.8949 6.57386 15.3267C7.24432 15.7585 8.01989 15.9744 8.90057 15.9744C9.39489 15.9744 9.85227 15.9091 10.2727 15.7784C10.6989 15.6477 11.0767 15.4574 11.4062 15.2074C11.7358 14.9517 12.0085 14.642 12.2244 14.2784C12.446 13.9148 12.5994 13.5 12.6847 13.0341L16.4176 13.0511C16.321 13.8523 16.0795 14.625 15.6932 15.3693C15.3125 16.108 14.7983 16.7699 14.1506 17.3551C13.5085 17.9347 12.7415 18.3949 11.8494 18.7358C10.9631 19.071 9.96023 19.2386 8.84091 19.2386C7.28409 19.2386 5.89205 18.8864 4.66477 18.1818C3.44318 17.4773 2.47727 16.4574 1.76705 15.1222C1.0625 13.7869 0.710227 12.1705 0.710227 10.2727C0.710227 8.36932 1.06818 6.75 1.78409 5.41477C2.5 4.07955 3.47159 3.0625 4.69886 2.36364C5.92614 1.65909 7.30682 1.30682 8.84091 1.30682C9.85227 1.30682 10.7898 1.44886 11.6534 1.73295C12.5227 2.01705 13.2926 2.43182 13.9631 2.97727C14.6335 3.51704 15.179 4.17898 15.5994 4.96307C16.0256 5.74716 16.2983 6.64489 16.4176 7.65625ZM24.9105 19.2557C23.5866 19.2557 22.4418 18.9744 21.4759 18.4119C20.5156 17.8437 19.7741 17.054 19.2514 16.0426C18.7287 15.0256 18.4673 13.8466 18.4673 12.5057C18.4673 11.1534 18.7287 9.97159 19.2514 8.96023C19.7741 7.94318 20.5156 7.15341 21.4759 6.59091C22.4418 6.02273 23.5866 5.73864 24.9105 5.73864C26.2344 5.73864 27.3764 6.02273 28.3366 6.59091C29.3026 7.15341 30.0469 7.94318 30.5696 8.96023C31.0923 9.97159 31.3537 11.1534 31.3537 12.5057C31.3537 13.8466 31.0923 15.0256 30.5696 16.0426C30.0469 17.054 29.3026 17.8437 28.3366 18.4119C27.3764 18.9744 26.2344 19.2557 24.9105 19.2557ZM24.9276 16.4432C25.5298 16.4432 26.0327 16.2727 26.4361 15.9318C26.8395 15.5852 27.1435 15.1136 27.348 14.517C27.5582 13.9205 27.6634 13.2415 27.6634 12.4801C27.6634 11.7188 27.5582 11.0398 27.348 10.4432C27.1435 9.84659 26.8395 9.375 26.4361 9.02841C26.0327 8.68182 25.5298 8.50852 24.9276 8.50852C24.3196 8.50852 23.8082 8.68182 23.3935 9.02841C22.9844 9.375 22.6747 9.84659 22.4645 10.4432C22.2599 11.0398 22.1577 11.7188 22.1577 12.4801C22.1577 13.2415 22.2599 13.9205 22.4645 14.517C22.6747 15.1136 22.9844 15.5852 23.3935 15.9318C23.8082 16.2727 24.3196 16.4432 24.9276 16.4432ZM39.6122 24.1818C38.4361 24.1818 37.4276 24.0199 36.5866 23.696C35.7514 23.3778 35.0866 22.9432 34.5923 22.392C34.098 21.8409 33.777 21.2216 33.6293 20.5341L36.9872 20.0824C37.0895 20.3438 37.2514 20.5881 37.473 20.8153C37.6946 21.0426 37.9872 21.2244 38.3509 21.3608C38.7202 21.5028 39.169 21.5739 39.6974 21.5739C40.4872 21.5739 41.1378 21.3807 41.6491 20.9943C42.1662 20.6136 42.4247 19.9744 42.4247 19.0767V16.6818H42.2713C42.1122 17.0455 41.8736 17.3892 41.5554 17.7131C41.2372 18.0369 40.8281 18.3011 40.3281 18.5057C39.8281 18.7102 39.2315 18.8125 38.5384 18.8125C37.5554 18.8125 36.6605 18.5852 35.8537 18.1307C35.0526 17.6705 34.4134 16.9687 33.9361 16.0256C33.4645 15.0767 33.2287 13.8778 33.2287 12.429C33.2287 10.946 33.4702 9.70739 33.9531 8.71307C34.4361 7.71875 35.0781 6.97443 35.8793 6.48011C36.6861 5.9858 37.5696 5.73864 38.5298 5.73864C39.2628 5.73864 39.8764 5.86364 40.3707 6.11364C40.8651 6.35795 41.2628 6.66477 41.5639 7.03409C41.8707 7.39773 42.1065 7.75568 42.2713 8.10795H42.4077V5.90909H46.0128V19.1278C46.0128 20.2415 45.7401 21.1733 45.1946 21.9233C44.6491 22.6733 43.8935 23.2358 42.9276 23.6108C41.9673 23.9915 40.8622 24.1818 39.6122 24.1818ZM39.6889 16.0852C40.2741 16.0852 40.7685 15.9403 41.1719 15.6506C41.581 15.3551 41.8935 14.9347 42.1094 14.3892C42.331 13.8381 42.4418 13.179 42.4418 12.4119C42.4418 11.6449 42.3338 10.9801 42.1179 10.4176C41.902 9.84943 41.5895 9.40909 41.1804 9.09659C40.7713 8.78409 40.2741 8.62784 39.6889 8.62784C39.0923 8.62784 38.5895 8.78977 38.1804 9.11364C37.7713 9.43182 37.4616 9.875 37.2514 10.4432C37.0412 11.0114 36.9361 11.6676 36.9361 12.4119C36.9361 13.1676 37.0412 13.821 37.2514 14.3722C37.4673 14.9176 37.777 15.3409 38.1804 15.642C38.5895 15.9375 39.0923 16.0852 39.6889 16.0852ZM65.0099 10.2727C65.0099 12.1761 64.6491 13.7955 63.9276 15.1307C63.2116 16.4659 62.2344 17.4858 60.9957 18.1903C59.7628 18.8892 58.3764 19.2386 56.8366 19.2386C55.2855 19.2386 53.8935 18.8864 52.6605 18.1818C51.4276 17.4773 50.4531 16.4574 49.7372 15.1222C49.0213 13.7869 48.6634 12.1705 48.6634 10.2727C48.6634 8.36932 49.0213 6.75 49.7372 5.41477C50.4531 4.07955 51.4276 3.0625 52.6605 2.36364C53.8935 1.65909 55.2855 1.30682 56.8366 1.30682C58.3764 1.30682 59.7628 1.65909 60.9957 2.36364C62.2344 3.0625 63.2116 4.07955 63.9276 5.41477C64.6491 6.75 65.0099 8.36932 65.0099 10.2727ZM61.2685 10.2727C61.2685 9.03977 61.0838 8 60.7145 7.15341C60.3509 6.30682 59.8366 5.66477 59.1719 5.22727C58.5071 4.78977 57.7287 4.57102 56.8366 4.57102C55.9446 4.57102 55.1662 4.78977 54.5014 5.22727C53.8366 5.66477 53.3196 6.30682 52.9503 7.15341C52.5866 8 52.4048 9.03977 52.4048 10.2727C52.4048 11.5057 52.5866 12.5455 52.9503 13.392C53.3196 14.2386 53.8366 14.8807 54.5014 15.3182C55.1662 15.7557 55.9446 15.9744 56.8366 15.9744C57.7287 15.9744 58.5071 15.7557 59.1719 15.3182C59.8366 14.8807 60.3509 14.2386 60.7145 13.392C61.0838 12.5455 61.2685 11.5057 61.2685 10.2727ZM67.6754 23.9091V5.90909H71.255V8.10795H71.4169C71.576 7.75568 71.8061 7.39773 72.1072 7.03409C72.4141 6.66477 72.8118 6.35795 73.3004 6.11364C73.7947 5.86364 74.4084 5.73864 75.1413 5.73864C76.0959 5.73864 76.9766 5.98864 77.7834 6.48864C78.5902 6.98295 79.2351 7.73011 79.718 8.73011C80.201 9.72443 80.4425 10.9716 80.4425 12.4716C80.4425 13.9318 80.2067 15.1648 79.7351 16.1705C79.2692 17.1705 78.6328 17.929 77.826 18.446C77.0249 18.9574 76.1271 19.2131 75.1328 19.2131C74.4283 19.2131 73.8288 19.0966 73.3345 18.8636C72.8459 18.6307 72.4453 18.3381 72.1328 17.9858C71.8203 17.6278 71.5817 17.267 71.4169 16.9034H71.3061V23.9091H67.6754ZM71.2294 12.4545C71.2294 13.233 71.3374 13.9119 71.5533 14.4915C71.7692 15.071 72.0817 15.5227 72.4908 15.8466C72.8999 16.1648 73.397 16.3239 73.9822 16.3239C74.5732 16.3239 75.0732 16.1619 75.4822 15.8381C75.8913 15.5085 76.201 15.054 76.4112 14.4744C76.6271 13.8892 76.7351 13.2159 76.7351 12.4545C76.7351 11.6989 76.63 11.0341 76.4197 10.4602C76.2095 9.88636 75.8999 9.4375 75.4908 9.11364C75.0817 8.78977 74.5788 8.62784 73.9822 8.62784C73.3913 8.62784 72.8913 8.78409 72.4822 9.09659C72.0788 9.40909 71.7692 9.85227 71.5533 10.4261C71.3374 11 71.2294 11.6761 71.2294 12.4545ZM93.755 9.64205L90.4311 9.84659C90.3743 9.5625 90.2521 9.30682 90.0646 9.07955C89.8771 8.84659 89.63 8.66193 89.3232 8.52557C89.022 8.38352 88.6612 8.3125 88.2408 8.3125C87.6783 8.3125 87.2038 8.43182 86.8175 8.67045C86.4311 8.90341 86.2379 9.21591 86.2379 9.60795C86.2379 9.92045 86.3629 10.1847 86.6129 10.4006C86.8629 10.6165 87.2919 10.7898 87.8999 10.9205L90.2692 11.3977C91.5419 11.6591 92.4908 12.0795 93.1158 12.6591C93.7408 13.2386 94.0533 14 94.0533 14.9432C94.0533 15.8011 93.8004 16.554 93.2947 17.2017C92.7947 17.8494 92.1072 18.3551 91.2322 18.7188C90.3629 19.0767 89.3601 19.2557 88.2237 19.2557C86.4908 19.2557 85.1101 18.8949 84.0817 18.1733C83.0589 17.446 82.4595 16.4574 82.2834 15.2074L85.8544 15.0199C85.9624 15.5483 86.2237 15.9517 86.6385 16.2301C87.0533 16.5028 87.5845 16.6392 88.2322 16.6392C88.8686 16.6392 89.38 16.517 89.7663 16.2727C90.1584 16.0227 90.3572 15.7017 90.3629 15.3097C90.3572 14.9801 90.218 14.7102 89.9453 14.5C89.6726 14.2841 89.2521 14.1193 88.6839 14.0057L86.4169 13.554C85.1385 13.2983 84.1868 12.8551 83.5618 12.2244C82.9425 11.5937 82.6328 10.7898 82.6328 9.8125C82.6328 8.97159 82.8601 8.24716 83.3146 7.6392C83.7749 7.03125 84.4197 6.5625 85.2493 6.23295C86.0845 5.90341 87.0618 5.73864 88.1811 5.73864C89.8345 5.73864 91.1357 6.08807 92.0845 6.78693C93.0391 7.4858 93.5959 8.4375 93.755 9.64205ZM98.4616 19.2216C97.8991 19.2216 97.4162 19.0227 97.0128 18.625C96.6151 18.2216 96.4162 17.7386 96.4162 17.1761C96.4162 16.6193 96.6151 16.142 97.0128 15.7443C97.4162 15.3466 97.8991 15.1477 98.4616 15.1477C99.0071 15.1477 99.4844 15.3466 99.8935 15.7443C100.303 16.142 100.507 16.6193 100.507 17.1761C100.507 17.5511 100.411 17.8949 100.217 18.2074C100.03 18.5142 99.7827 18.7614 99.4759 18.9489C99.169 19.1307 98.831 19.2216 98.4616 19.2216ZM107.221 19.2472C106.386 19.2472 105.641 19.1023 104.988 18.8125C104.335 18.517 103.817 18.0824 103.437 17.5085C103.062 16.929 102.874 16.2074 102.874 15.3438C102.874 14.6165 103.008 14.0057 103.275 13.5114C103.542 13.017 103.906 12.6193 104.366 12.3182C104.826 12.017 105.349 11.7898 105.934 11.6364C106.525 11.483 107.144 11.375 107.792 11.3125C108.553 11.233 109.167 11.1591 109.633 11.0909C110.099 11.017 110.437 10.9091 110.647 10.767C110.857 10.625 110.962 10.4148 110.962 10.1364V10.0852C110.962 9.54545 110.792 9.12784 110.451 8.83239C110.116 8.53693 109.638 8.3892 109.019 8.3892C108.366 8.3892 107.846 8.53409 107.46 8.82386C107.073 9.10795 106.817 9.46591 106.692 9.89773L103.335 9.625C103.505 8.82955 103.84 8.14205 104.34 7.5625C104.84 6.97727 105.485 6.52841 106.275 6.21591C107.07 5.89773 107.991 5.73864 109.036 5.73864C109.763 5.73864 110.46 5.82386 111.124 5.99432C111.795 6.16477 112.388 6.42898 112.906 6.78693C113.428 7.14489 113.84 7.60511 114.141 8.16761C114.442 8.72443 114.593 9.39205 114.593 10.1705V19H111.15V17.1847H111.048C110.837 17.5938 110.556 17.9545 110.204 18.267C109.852 18.5739 109.428 18.8153 108.934 18.9915C108.44 19.1619 107.869 19.2472 107.221 19.2472ZM108.261 16.7415C108.795 16.7415 109.266 16.6364 109.675 16.4261C110.085 16.2102 110.406 15.9205 110.638 15.5568C110.871 15.1932 110.988 14.7812 110.988 14.321V12.9318C110.874 13.0057 110.718 13.0739 110.519 13.1364C110.326 13.1932 110.107 13.2472 109.863 13.2983C109.619 13.3437 109.374 13.3864 109.13 13.4261C108.886 13.4602 108.664 13.4915 108.465 13.5199C108.039 13.5824 107.667 13.6818 107.349 13.8182C107.031 13.9545 106.783 14.1392 106.607 14.3722C106.431 14.5994 106.343 14.8835 106.343 15.2244C106.343 15.7188 106.522 16.0966 106.88 16.358C107.244 16.6136 107.704 16.7415 108.261 16.7415ZM117.41 19V5.90909H121.04V19H117.41ZM119.234 4.22159C118.694 4.22159 118.231 4.04261 117.844 3.68466C117.464 3.32102 117.273 2.88636 117.273 2.38068C117.273 1.88068 117.464 1.4517 117.844 1.09375C118.231 0.730113 118.694 0.548295 119.234 0.548295C119.773 0.548295 120.234 0.730113 120.614 1.09375C121.001 1.4517 121.194 1.88068 121.194 2.38068C121.194 2.88636 121.001 3.32102 120.614 3.68466C120.234 4.04261 119.773 4.22159 119.234 4.22159Z" fill="white"/>
</svg>
